<?xml version="1.0" encoding="UTF-8" standalone="no"?>
<svg
   xmlns:dc="http://purl.org/dc/elements/1.1/"
   xmlns:cc="http://creativecommons.org/ns#"
   xmlns:rdf="http://www.w3.org/1999/02/22-rdf-syntax-ns#"
   xmlns:svg="http://www.w3.org/2000/svg"
   xmlns="http://www.w3.org/2000/svg"
   width="656.73035mm"
   height="154.43341mm"
   viewBox="0 0 656.73035 154.43341"
   version="1.1"
   id="svg8">
  <defs
     id="defs2" />
  <metadata
     id="metadata5">
    <rdf:RDF>
      <cc:Work
         rdf:about="">
        <dc:format>image/svg+xml</dc:format>
        <dc:type
           rdf:resource="http://purl.org/dc/dcmitype/StillImage" />
        <dc:title></dc:title>
      </cc:Work>
    </rdf:RDF>
  </metadata>
  <g
     style="fill:#ffffff"
     id="layer1"
     transform="translate(381.88121,1.7905384)">
    <g
       aria-label="Couth"
       style="font-style:normal;font-variant:normal;font-weight:normal;font-stretch:normal;font-size:156.84719849px;line-height:1.25;font-family:Aladin;-inkscape-font-specification:Aladin;letter-spacing:0px;word-spacing:0px;fill:#ffffff;fill-opacity:1;stroke:none;stroke-width:0.81691241"
       id="text4749">
      <path
         d="m -155.60089,151.85312 q -17.2532,0 -31.05575,-7.21497 -13.64571,-7.37182 -21.48807,-20.39014 -7.84236,-13.01832 -7.84236,-29.487272 0,-16.468956 7.84236,-29.487274 7.84236,-13.018317 21.48807,-20.233288 13.80255,-7.371819 31.05575,-7.371819 15.05733,0 27.13456,5.332805 12.07724,5.332805 20.07644,15.371026 l -19.76274,17.88058 q -10.66561,-12.86147 -25.87979,-12.86147 -8.94029,0 -15.99842,3.92118 -6.90127,3.92118 -10.82245,11.136151 -3.76434,7.058124 -3.76434,16.312109 0,9.253982 3.76434,16.468952 3.92118,7.05813 10.82245,10.97931 7.05813,3.92118 15.99842,3.92118 15.21418,0 25.87979,-12.86147 l 19.76274,17.88058 q -7.9992,10.03822 -20.07644,15.37102 -12.07723,5.33281 -27.13456,5.33281 z"
         style="font-style:normal;font-variant:normal;font-weight:normal;font-stretch:normal;font-family:'Montserrat ExtraBold';-inkscape-font-specification:'Montserrat ExtraBold, ';stroke-width:0.81691241;fill:#ffffff"
         id="path4872" />
      <path
         d="m -56.049485,151.06888 q -13.645706,0 -24.62501,-5.6465 -10.979304,-5.6465 -17.253192,-15.68472 -6.117043,-10.03822 -6.117043,-22.74284 0,-12.547777 6.117043,-22.585997 6.273888,-10.038221 17.096345,-15.527873 10.979304,-5.646499 24.781857,-5.646499 13.802554,0 24.781857,5.646499 10.979304,5.489652 17.096345,15.527873 6.1170408,9.881373 6.1170408,22.585997 0,12.70462 -6.1170408,22.74284 -6.117041,10.03822 -17.096345,15.68472 -10.979303,5.6465 -24.781857,5.6465 z m 0,-23.68393 q 7.84236,0 12.86147,-5.3328 5.019111,-5.48965 5.019111,-15.05733 0,-9.410833 -5.019111,-14.743638 -5.01911,-5.332804 -12.86147,-5.332804 -7.84236,0 -12.86147,5.332804 -5.019111,5.332805 -5.019111,14.743638 0,9.56768 5.019111,15.05733 5.01911,5.3328 12.86147,5.3328 z"
         style="font-style:normal;font-variant:normal;font-weight:normal;font-stretch:normal;font-family:'Montserrat ExtraBold';-inkscape-font-specification:'Montserrat ExtraBold, ';stroke-width:0.81691241;fill:#ffffff"
         id="path4874" />
      <path
         d="M 95.153672,64.646076 V 149.65726 H 66.76433 v -9.09714 q -4.705416,5.17596 -11.292999,7.84236 -6.587582,2.6664 -13.9594,2.6664 -16.468956,0 -26.35033,-9.72452 -9.7245261,-9.72453 -9.7245261,-29.17358 V 64.646076 H 35.238043 v 42.662434 q 0,9.56768 3.607485,13.9594 3.607486,4.39173 10.508762,4.39173 7.058124,0 11.449846,-4.86227 4.548569,-5.01911 4.548569,-15.21418 V 64.646076 Z"
         style="font-style:normal;font-variant:normal;font-weight:normal;font-stretch:normal;font-family:'Montserrat ExtraBold';-inkscape-font-specification:'Montserrat ExtraBold, ';stroke-width:0.81691241;fill:#ffffff"
         id="path4876" />
      <path
         d="m 172.85675,146.20662 q -3.76433,2.35271 -9.25398,3.60748 -5.33281,1.25478 -11.44985,1.25478 -16.6258,0 -25.56609,-8.15605 -8.94029,-8.15606 -8.94029,-24.31132 V 90.055322 H 105.25561 V 67.783019 h 12.39093 V 45.667564 h 29.80096 v 22.115455 h 19.44906 V 90.055322 H 147.4475 v 28.232498 q 0,4.54857 2.35271,7.21497 2.50956,2.50955 6.58759,2.50955 5.17595,0 9.09713,-2.6664 z"
         style="font-style:normal;font-variant:normal;font-weight:normal;font-stretch:normal;font-family:'Montserrat ExtraBold';-inkscape-font-specification:'Montserrat ExtraBold, ';stroke-width:0.81691241;fill:#ffffff"
         id="path4878" />
      <path
         d="m 239.71533,63.234451 q 15.84157,0 25.40925,9.410832 9.72453,9.410832 9.72453,28.389347 v 48.62263 h -29.80097 v -43.76037 q 0,-17.41004 -13.9594,-17.41004 -7.68551,0 -12.39093,5.01911 -4.54857,5.01911 -4.54857,15.05733 v 41.09397 H 184.34827 V 33.276636 h 29.80097 v 39.211799 q 4.86226,-4.548568 11.44985,-6.901276 6.58758,-2.352708 14.11624,-2.352708 z"
         style="font-style:normal;font-variant:normal;font-weight:normal;font-stretch:normal;font-family:'Montserrat ExtraBold';-inkscape-font-specification:'Montserrat ExtraBold, ';stroke-width:0.81691241;fill:#ffffff"
         id="path4880" />
    </g>
    <g
       style="fill:#ffffff"
       id="g4870"
       transform="matrix(5.1473138,0,0,5.1473138,-383.12267,-1.7905384)">
      <g
         style="fill:#ffffff"
         id="g4810">
        <g
           style="fill:#ffffff"
           id="g4808">
          <g
             style="fill:#ffffff"
             id="g4806">
            <path
               style="fill:#ffffff"
               id="path4800"
               d="m 29.659,23.311 c -0.097,-0.088 -0.239,-0.102 -0.352,-0.034 -1.412,0.825 -4.526,2.061 -7.757,-0.539 l -0.002,0.002 c -0.765,-0.758 -1.814,-1.229 -2.979,-1.229 -1.506,0 -2.82,0.792 -3.57,1.978 -0.751,-1.186 -2.063,-1.978 -3.569,-1.978 -1.162,0 -2.215,0.472 -2.979,1.229 L 8.45,22.738 c -3.229,2.599 -6.344,1.364 -7.756,0.539 -0.112,-0.066 -0.255,-0.054 -0.352,0.034 -0.099,0.087 -0.128,0.227 -0.074,0.346 3.261,7.372 11.507,6.29 11.507,6.29 1.354,-0.111 2.53,-0.854 3.225,-1.936 0.694,1.081 1.869,1.822 3.227,1.936 0,0 8.245,1.082 11.507,-6.29 0.052,-0.121 0.023,-0.261 -0.075,-0.346 z" />
            <path
               style="fill:#ffffff"
               id="path4802"
               d="m 22.908,9.421 c 0,0 0,-7.538 0,-7.566 C 22.908,0.831 19.368,0 15.002,0 10.637,0 7.097,0.831 7.097,1.855 c 0,0.028 0,7.566 0,7.566 1.005,0.802 4.161,1.389 7.905,1.389 3.744,0 6.9,-0.587 7.906,-1.389 z" />
            <path
               style="fill:#ffffff"
               id="path4804"
               d="m 15.002,18.303 c 6.802,0 12.313,-1.313 12.313,-2.938 0,-0.904 -1.715,-1.712 -4.406,-2.25 V 12.55 c -1.006,0.802 -4.162,1.388 -7.906,1.388 -3.744,0 -6.9,-0.586 -7.905,-1.388 v 0.565 c -2.692,0.539 -4.406,1.347 -4.406,2.25 -0.003,1.621 5.509,2.938 12.31,2.938 z" />
          </g>
        </g>
      </g>
      <g
         style="fill:#ffffff"
         id="g4812" />
      <g
         style="fill:#ffffff"
         id="g4814" />
      <g
         style="fill:#ffffff"
         id="g4816" />
      <g
         style="fill:#ffffff"
         id="g4818" />
      <g
         style="fill:#ffffff"
         id="g4820" />
      <g
         style="fill:#ffffff"
         id="g4822" />
      <g
         style="fill:#ffffff"
         id="g4824" />
      <g
         style="fill:#ffffff"
         id="g4826" />
      <g
         style="fill:#ffffff"
         id="g4828" />
      <g
         style="fill:#ffffff"
         id="g4830" />
      <g
         style="fill:#ffffff"
         id="g4832" />
      <g
         style="fill:#ffffff"
         id="g4834" />
      <g
         style="fill:#ffffff"
         id="g4836" />
      <g
         style="fill:#ffffff"
         id="g4838" />
      <g
         style="fill:#ffffff"
         id="g4840" />
    </g>
  </g>
</svg>
